<svg width="16" height="16" viewBox="0 0 16 16" fill="none" xmlns="http://www.w3.org/2000/svg">
<path d="M1.87965 10.5728L5.42049 14.1136C6.87434 15.5674 9.23489 15.5674 10.6966 14.1136L14.128 10.6822C15.5818 9.22833 15.5818 6.86778 14.128 5.40611L10.5793 1.8731C9.83676 1.13054 8.81281 0.731903 7.76541 0.786617L3.85721 0.974211C2.29392 1.04456 1.05112 2.28737 0.972952 3.84283L0.785358 7.75103C0.73846 8.80625 1.1371 9.8302 1.87965 10.5728Z" stroke="#3A3A3A" stroke-width="1.5" stroke-linecap="round" stroke-linejoin="round"/>
<path d="M6.04871 7.99246C7.12793 7.99246 8.00281 7.11758 8.00281 6.03836C8.00281 4.95914 7.12793 4.08426 6.04871 4.08426C4.96949 4.08426 4.09461 4.95914 4.09461 6.03836C4.09461 7.11758 4.96949 7.99246 6.04871 7.99246Z" stroke="#3A3A3A" stroke-width="1.5" stroke-linecap="round"/>
</svg>
