<svg width="13" height="14" viewBox="0 0 13 14" fill="none" xmlns="http://www.w3.org/2000/svg">
<path d="M3.25 6.375V3.875C3.25 3.0462 3.57924 2.25134 4.16529 1.66529C4.75134 1.07924 5.5462 0.75 6.375 0.75C7.2038 0.75 7.99866 1.07924 8.58471 1.66529C9.17076 2.25134 9.5 3.0462 9.5 3.875V6.375M2 6.375H10.75C11.4404 6.375 12 6.93464 12 7.625V12C12 12.6904 11.4404 13.25 10.75 13.25H2C1.30964 13.25 0.75 12.6904 0.75 12V7.625C0.75 6.93464 1.30964 6.375 2 6.375Z" stroke="black" stroke-width="1.5" stroke-linecap="round" stroke-linejoin="round"/>
</svg>
