<svg width="9" height="9" viewBox="0 0 9 9" fill="none" xmlns="http://www.w3.org/2000/svg">
<path d="M8.40953 4.17412H4.8259V0.590485C4.8259 0.504082 4.79158 0.421217 4.73048 0.36012C4.66939 0.299024 4.58652 0.2647 4.50012 0.2647C4.41371 0.2647 4.33085 0.299024 4.26975 0.36012C4.20866 0.421217 4.17433 0.504082 4.17433 0.590485V4.17412H0.590699C0.504295 4.17412 0.42143 4.20844 0.360334 4.26954C0.299237 4.33063 0.264914 4.4135 0.264914 4.4999C0.263306 4.54224 0.270793 4.58444 0.28687 4.62364C0.302947 4.66284 0.32724 4.69814 0.358113 4.72716C0.388986 4.75618 0.425721 4.77825 0.465842 4.79187C0.505963 4.8055 0.548538 4.81036 0.590699 4.80614H4.17433V8.40932C4.17433 8.49572 4.20866 8.57859 4.26975 8.63969C4.33085 8.70078 4.41371 8.73511 4.50012 8.73511C4.58652 8.73511 4.66939 8.70078 4.73048 8.63969C4.79158 8.57859 4.8259 8.49572 4.8259 8.40932V4.82569H8.40953C8.49594 4.82569 8.5788 4.79136 8.6399 4.73027C8.701 4.66917 8.73532 4.58631 8.73532 4.4999C8.73532 4.4135 8.701 4.33063 8.6399 4.26954C8.5788 4.20844 8.49594 4.17412 8.40953 4.17412Z" fill="white" stroke="white" stroke-width="0.5"/>
</svg>
