<svg width="261" height="161" viewBox="0 0 261 161" fill="none" xmlns="http://www.w3.org/2000/svg">
<path fill-rule="evenodd" clip-rule="evenodd" d="M204.929 161V3.42045C204.929 1.53139 206.46 0 208.349 0C210.238 0 211.77 1.53139 211.77 3.42046V161H204.929Z" fill="#6979F8"/>
<path fill-rule="evenodd" clip-rule="evenodd" d="M193.929 161V54.4205C193.929 52.5314 195.46 51 197.349 51C199.238 51 200.77 52.5314 200.77 54.4205V161H193.929Z" fill="#9BA6FA"/>
<path fill-rule="evenodd" clip-rule="evenodd" d="M156.446 161V24.4205C156.446 22.5314 157.978 21 159.867 21C161.756 21 163.287 22.5314 163.287 24.4205V161H156.446Z" fill="#6979F8"/>
<path fill-rule="evenodd" clip-rule="evenodd" d="M145.446 161V84.4205C145.446 82.5314 146.978 81 148.867 81C150.756 81 152.287 82.5314 152.287 84.4205V161H145.446Z" fill="#9BA6FA"/>
<path fill-rule="evenodd" clip-rule="evenodd" d="M107.964 161V44.4205C107.964 42.5314 109.496 41 111.385 41C113.274 41 114.805 42.5314 114.805 44.4205V161H107.964Z" fill="#6979F8"/>
<path fill-rule="evenodd" clip-rule="evenodd" d="M96.9643 161V74.4205C96.9643 72.5314 98.4957 71 100.385 71C102.274 71 103.805 72.5314 103.805 74.4205V161H96.9643Z" fill="#9BA6FA"/>
<path fill-rule="evenodd" clip-rule="evenodd" d="M59.4821 161V14.4205C59.4821 12.5314 61.0135 11 62.9026 11C64.7917 11 66.323 12.5314 66.323 14.4205V161H59.4821Z" fill="#6979F8"/>
<path fill-rule="evenodd" clip-rule="evenodd" d="M48.4821 161V34.4205C48.4821 32.5314 50.0135 31 51.9026 31C53.7916 31 55.323 32.5314 55.323 34.4205V161H48.4821Z" fill="#9BA6FA"/>
<path fill-rule="evenodd" clip-rule="evenodd" d="M253.331 161L253.331 3.5C253.331 1.567 254.898 0 256.831 0C258.764 0 260.331 1.567 260.331 3.5V161H253.331Z" fill="#6979F8"/>
<path fill-rule="evenodd" clip-rule="evenodd" d="M242.331 161L242.331 84.5C242.331 82.567 243.898 81 245.831 81C247.764 81 249.331 82.567 249.331 84.5V161H242.331Z" fill="#9BA6FA"/>
<path fill-rule="evenodd" clip-rule="evenodd" d="M11 161V34.4205C11 32.5314 12.5314 31 14.4205 31C16.3095 31 17.8409 32.5314 17.8409 34.4205V161H11Z" fill="#6979F8"/>
<path fill-rule="evenodd" clip-rule="evenodd" d="M4.32134e-07 161V84.4205C4.32134e-07 82.5314 1.53139 81 3.42045 81C5.30952 81 6.84091 82.5314 6.84091 84.4205V161H4.32134e-07Z" fill="#9BA6FA"/>
</svg>
