<svg width="14" height="14" viewBox="0 0 14 14" fill="none" xmlns="http://www.w3.org/2000/svg">
<path d="M8.00856 2.04749L9.03523 4.10082C9.17523 4.38665 9.54856 4.66082 9.86356 4.71332L11.7244 5.02249C12.9144 5.22082 13.1944 6.08415 12.3369 6.93582L10.8902 8.38248C10.6452 8.62748 10.5111 9.09998 10.5869 9.43832L11.0011 11.2292C11.3277 12.6467 10.5752 13.195 9.32106 12.4542L7.5769 11.4217C7.2619 11.235 6.74273 11.235 6.4219 11.4217L4.67773 12.4542C3.4294 13.195 2.67106 12.6408 2.99773 11.2292L3.4119 9.43832C3.48773 9.09998 3.35356 8.62748 3.10856 8.38248L1.6619 6.93582C0.810231 6.08415 1.0844 5.22082 2.2744 5.02249L4.13523 4.71332C4.4444 4.66082 4.81773 4.38665 4.95773 4.10082L5.9844 2.04749C6.5444 0.933319 7.4544 0.933319 8.00856 2.04749Z" fill="#3A3A3A"/>
</svg>
