<svg width="20" height="20" viewBox="0 0 20 20" fill="none" xmlns="http://www.w3.org/2000/svg">
<path d="M16.6666 6.87501V15C16.6666 17.5 15.1749 18.3333 13.3333 18.3333H6.66658C4.82492 18.3333 3.33325 17.5 3.33325 15V6.87501C3.33325 4.16667 4.82492 3.54167 6.66658 3.54167C6.66658 4.05834 6.8749 4.525 7.21656 4.86667C7.55823 5.20834 8.02492 5.41667 8.54158 5.41667H11.4583C12.4916 5.41667 13.3333 4.57501 13.3333 3.54167C15.1749 3.54167 16.6666 4.16667 16.6666 6.87501Z" stroke="#3A3A3A" stroke-width="1.5" stroke-linecap="round" stroke-linejoin="round"/>
<path d="M13.3334 3.54167C13.3334 4.57501 12.4917 5.41667 11.4584 5.41667H8.54175C8.02508 5.41667 7.55839 5.20834 7.21673 4.86667C6.87506 4.525 6.66675 4.05834 6.66675 3.54167C6.66675 2.50834 7.50841 1.66667 8.54175 1.66667H11.4584C11.9751 1.66667 12.4418 1.87501 12.7834 2.21667C13.1251 2.55834 13.3334 3.02501 13.3334 3.54167Z" stroke="#3A3A3A" stroke-width="1.5" stroke-linecap="round" stroke-linejoin="round"/>
<path d="M6.66675 10.8333H10.0001" stroke="#3A3A3A" stroke-width="1.5" stroke-linecap="round" stroke-linejoin="round"/>
<path d="M6.66675 14.1667H13.3334" stroke="#3A3A3A" stroke-width="1.5" stroke-linecap="round" stroke-linejoin="round"/>
</svg>
