<svg width="275" height="161" viewBox="0 0 275 161" fill="none" xmlns="http://www.w3.org/2000/svg">
<path d="M0.60418 101.421L31.017 60.3777L61.4299 110.6L91.8428 8.07728L122.256 109.907L152.669 100.209L183.081 65.7463L213.494 150.085L243.907 96.0528L274.32 160.476" stroke="#00C7F2" stroke-width="1.5"/>
<path d="M0.60418 126.205L31.017 133.76L61.4299 48.7657L91.8428 2.06154L122.256 22.1512L152.669 79.3295L183.081 100.106L213.494 145.436L243.907 72.9763L274.32 91.1772" stroke="#0FCA7A" stroke-width="1.5"/>
<path d="M0.60418 149.292L31.017 159.473L61.4299 154.987L91.8428 61.8017L122.256 78.0227L152.669 101.837L183.081 27.979L213.494 47.3062L243.907 1.05892L274.32 22.2844" stroke="#FBC62F" stroke-width="1.5"/>
</svg>
