<svg width="30" height="30" viewBox="0 0 30 30" fill="none" xmlns="http://www.w3.org/2000/svg">
<path fill-rule="evenodd" clip-rule="evenodd" d="M14.3861 1.71065C14.7472 1.42978 15.2528 1.42978 15.6139 1.71065L26.8639 10.4606C27.1075 10.6501 27.25 10.9414 27.25 11.25V25C27.25 25.9283 26.8813 26.8185 26.2249 27.4749C25.5685 28.1313 24.6783 28.5 23.75 28.5H6.25C5.32174 28.5 4.4315 28.1313 3.77513 27.4749C3.11875 26.8185 2.75 25.9283 2.75 25V11.25C2.75 10.9414 2.89247 10.6501 3.13606 10.4606L14.3861 1.71065ZM4.75 11.7391V25C4.75 25.3978 4.90803 25.7794 5.18934 26.0607C5.47064 26.342 5.85218 26.5 6.25 26.5H23.75C24.1478 26.5 24.5294 26.342 24.8107 26.0607C25.092 25.7794 25.25 25.3978 25.25 25V11.7391L15 3.76686L4.75 11.7391Z" fill="#BDBDBD"/>
<path fill-rule="evenodd" clip-rule="evenodd" d="M10.25 15C10.25 14.4477 10.6977 14 11.25 14H18.75C19.3023 14 19.75 14.4477 19.75 15V27.5C19.75 28.0523 19.3023 28.5 18.75 28.5C18.1977 28.5 17.75 28.0523 17.75 27.5V16H12.25V27.5C12.25 28.0523 11.8023 28.5 11.25 28.5C10.6977 28.5 10.25 28.0523 10.25 27.5V15Z" fill="#BDBDBD"/>
</svg>
