<svg width="30" height="30" viewBox="0 0 30 30" fill="none" xmlns="http://www.w3.org/2000/svg">
<path fill-rule="evenodd" clip-rule="evenodd" d="M15 3.5C8.64873 3.5 3.5 8.64873 3.5 15C3.5 21.3513 8.64873 26.5 15 26.5C21.3513 26.5 26.5 21.3513 26.5 15C26.5 8.64873 21.3513 3.5 15 3.5ZM1.5 15C1.5 7.54416 7.54416 1.5 15 1.5C22.4558 1.5 28.5 7.54416 28.5 15C28.5 22.4558 22.4558 28.5 15 28.5C7.54416 28.5 1.5 22.4558 1.5 15Z" fill="#BDBDBD"/>
<path fill-rule="evenodd" clip-rule="evenodd" d="M15 9C15.5523 9 16 9.44772 16 10V20C16 20.5523 15.5523 21 15 21C14.4477 21 14 20.5523 14 20V10C14 9.44772 14.4477 9 15 9Z" fill="#BDBDBD"/>
<path fill-rule="evenodd" clip-rule="evenodd" d="M9 15C9 14.4477 9.44772 14 10 14H20C20.5523 14 21 14.4477 21 15C21 15.5523 20.5523 16 20 16H10C9.44772 16 9 15.5523 9 15Z" fill="#BDBDBD"/>
</svg>
