<svg width="74" height="137" viewBox="0 0 74 137" fill="none" xmlns="http://www.w3.org/2000/svg">
<path d="M72.6369 4.62148C73.8079 3.88908 74.1634 2.34606 73.431 1.17504C72.6986 0.00402755 71.1556 -0.351539 69.9846 0.380862L72.6369 4.62148ZM21.9416 136.774C23.1982 137.347 24.6816 136.793 25.2548 135.536L34.5957 115.058C35.1689 113.802 34.6148 112.318 33.3582 111.745C32.1016 111.172 30.6182 111.726 30.045 112.983L21.742 131.185L3.53932 122.882C2.28268 122.309 0.799309 122.863 0.22611 124.12C-0.347089 125.376 0.206945 126.86 1.46358 127.433L21.9416 136.774ZM69.9846 0.380862C48.5936 13.7597 31.8356 35.5755 22.6266 59.9338C13.4173 84.293 11.683 111.401 20.6367 135.374L25.3223 133.623C16.8741 111.004 18.4341 85.1671 27.3052 61.7026C36.1766 38.2371 52.2852 17.3502 72.6369 4.62148L69.9846 0.380862Z" fill="black" fill-opacity="0.35"/>
</svg>
