<svg width="8" height="8" viewBox="0 0 8 8" fill="none" xmlns="http://www.w3.org/2000/svg">
<path fill-rule="evenodd" clip-rule="evenodd" d="M3.79997 1.16666C2.31341 1.16666 1.10831 2.43519 1.10831 4C1.10831 5.5648 2.31341 6.83333 3.79997 6.83333C5.28654 6.83333 6.49164 5.5648 6.49164 4C6.49164 2.43519 5.28654 1.16666 3.79997 1.16666ZM0.633306 4C0.633306 2.15905 2.05107 0.666663 3.79997 0.666663C5.54887 0.666663 6.96664 2.15905 6.96664 4C6.96664 5.84095 5.54887 7.33333 3.79997 7.33333C2.05107 7.33333 0.633306 5.84095 0.633306 4Z" fill="#949494"/>
<path fill-rule="evenodd" clip-rule="evenodd" d="M2.85406 3.50701C2.93783 3.40076 3.08756 3.38611 3.18849 3.47428L3.79999 4.00846L4.41149 3.47428C4.51243 3.38611 4.66216 3.40076 4.74592 3.50701C4.82969 3.61326 4.81577 3.77087 4.71483 3.85905L3.95166 4.52571C3.86372 4.60254 3.73626 4.60254 3.64832 4.52571L2.88515 3.85905C2.78422 3.77087 2.77029 3.61326 2.85406 3.50701Z" fill="#949494"/>
</svg>
