<svg width="30" height="30" viewBox="0 0 30 30" fill="none" xmlns="http://www.w3.org/2000/svg">
<path fill-rule="evenodd" clip-rule="evenodd" d="M15 3.5C8.64873 3.5 3.5 8.64873 3.5 15C3.5 21.3513 8.64873 26.5 15 26.5C21.3513 26.5 26.5 21.3513 26.5 15C26.5 8.64873 21.3513 3.5 15 3.5ZM1.5 15C1.5 7.54416 7.54416 1.5 15 1.5C22.4558 1.5 28.5 7.54416 28.5 15C28.5 22.4558 22.4558 28.5 15 28.5C7.54416 28.5 1.5 22.4558 1.5 15Z" fill="#BDBDBD"/>
<path fill-rule="evenodd" clip-rule="evenodd" d="M10.7977 16.8969C10.4657 16.4578 9.84083 16.3695 9.40006 16.7001C8.95823 17.0314 8.86869 17.6582 9.20006 18.1001L10.0001 17.5001C9.20006 18.1001 9.2003 18.1004 9.20055 18.1007L9.20109 18.1014L9.20229 18.103L9.20524 18.1069L9.21327 18.1174C9.21956 18.1256 9.22776 18.1361 9.23783 18.1488C9.25797 18.1743 9.28566 18.2085 9.32075 18.2504C9.39087 18.3339 9.49096 18.4481 9.61987 18.5826C9.87687 18.8508 10.2532 19.2047 10.74 19.5588C11.7098 20.2641 13.162 21.0001 15.0001 21.0001C16.8381 21.0001 18.2903 20.2641 19.2601 19.5588C19.7469 19.2047 20.1233 18.8508 20.3803 18.5826C20.5092 18.4481 20.6092 18.3339 20.6794 18.2504C20.7145 18.2085 20.7421 18.1743 20.7623 18.1488C20.7724 18.1361 20.7806 18.1256 20.7869 18.1174L20.7949 18.1069L20.7978 18.103L20.799 18.1014L20.7996 18.1007C20.7998 18.1004 20.8001 18.1001 20.0001 17.5001L20.8001 18.1001C21.1314 17.6582 21.0419 17.0314 20.6001 16.7001C20.1584 16.3688 19.532 16.4582 19.2005 16.8995L19.2009 16.8989L19.2016 16.898L19.2023 16.8971L19.1942 16.9074C19.1853 16.9186 19.1697 16.9381 19.1474 16.9646C19.1028 17.0178 19.032 17.0989 18.9363 17.1988C18.7441 17.3994 18.4563 17.6704 18.0838 17.9413C17.3348 18.486 16.287 19.0001 15.0001 19.0001C13.7131 19.0001 12.6653 18.486 11.9164 17.9413C11.5438 17.6704 11.2561 17.3994 11.0638 17.1988C10.9681 17.0989 10.8973 17.0178 10.8527 16.9646C10.8304 16.9381 10.8148 16.9186 10.8059 16.9074L10.7978 16.8971M10.7977 16.8969C10.7977 16.8969 10.7977 16.8969 10.7977 16.8969L10.7977 16.8969Z" fill="#BDBDBD"/>
<path fill-rule="evenodd" clip-rule="evenodd" d="M10.25 11.25C10.25 10.6977 10.6977 10.25 11.25 10.25H11.2625C11.8148 10.25 12.2625 10.6977 12.2625 11.25C12.2625 11.8023 11.8148 12.25 11.2625 12.25H11.25C10.6977 12.25 10.25 11.8023 10.25 11.25Z" fill="#BDBDBD"/>
<path fill-rule="evenodd" clip-rule="evenodd" d="M17.75 11.25C17.75 10.6977 18.1977 10.25 18.75 10.25H18.7625C19.3148 10.25 19.7625 10.6977 19.7625 11.25C19.7625 11.8023 19.3148 12.25 18.7625 12.25H18.75C18.1977 12.25 17.75 11.8023 17.75 11.25Z" fill="#BDBDBD"/>
</svg>
