<svg width="262" height="165" viewBox="0 0 262 165" fill="none" xmlns="http://www.w3.org/2000/svg">
<path fill-rule="evenodd" clip-rule="evenodd" d="M196.689 161.054V8.30961C196.689 3.72034 200.409 0 204.999 0C209.588 0 213.308 3.72034 213.308 8.30961V161.054H196.689Z" fill="#E4E4E4"/>
<path fill-rule="evenodd" clip-rule="evenodd" d="M196.689 161.054V49.9054H213.308V161.054H196.689Z" fill="#9BA6FA"/>
<path fill-rule="evenodd" clip-rule="evenodd" d="M196.689 161.054V80.4157H213.308V161.054H196.689Z" fill="#6979F8"/>
<path fill-rule="evenodd" clip-rule="evenodd" d="M148.191 161.054V29.3167C148.191 24.7274 151.911 21.0071 156.5 21.0071C161.09 21.0071 164.81 24.7274 164.81 29.3167V161.054H148.191Z" fill="#E4E4E4"/>
<path fill-rule="evenodd" clip-rule="evenodd" d="M148.191 161.054V37.1864H164.81V161.054H148.191Z" fill="#9BA6FA"/>
<path fill-rule="evenodd" clip-rule="evenodd" d="M148.191 161.054V98.2884H164.81V161.054H148.191Z" fill="#6979F8"/>
<path fill-rule="evenodd" clip-rule="evenodd" d="M99.6922 161.054V49.3234C99.6922 44.7341 103.413 41.0138 108.002 41.0138C112.591 41.0138 116.311 44.7341 116.311 49.3234V161.054H99.6922Z" fill="#E4E4E4"/>
<path fill-rule="evenodd" clip-rule="evenodd" d="M99.6922 161.054V88.9185H116.311V161.054H99.6922Z" fill="#9BA6FA"/>
<path fill-rule="evenodd" clip-rule="evenodd" d="M99.6922 161.054V137.299H116.311V161.054H99.6922Z" fill="#6979F8"/>
<path fill-rule="evenodd" clip-rule="evenodd" d="M51.1938 161.054V19.3133C51.1938 14.724 54.9141 11.0037 59.5034 11.0037C64.0926 11.0037 67.813 14.724 67.813 19.3133V161.054H51.1938Z" fill="#E4E4E4"/>
<path fill-rule="evenodd" clip-rule="evenodd" d="M51.1938 161.054V52.4063H67.813V161.054H51.1938Z" fill="#9BA6FA"/>
<path fill-rule="evenodd" clip-rule="evenodd" d="M51.1938 161.054V118.292H67.813V161.054H51.1938Z" fill="#6979F8"/>
<path fill-rule="evenodd" clip-rule="evenodd" d="M244.994 161.054L244.994 8.50286C244.994 3.80686 248.801 0 253.497 0C258.193 0 262 3.80686 262 8.50285V161.054H244.994Z" fill="#E4E4E4"/>
<path fill-rule="evenodd" clip-rule="evenodd" d="M244.994 161.054L244.994 21.0071H262V161.054H244.994Z" fill="#9BA6FA"/>
<path fill-rule="evenodd" clip-rule="evenodd" d="M244.994 161.054L244.994 102.287H262V161.054H244.994Z" fill="#6979F8"/>
<path fill-rule="evenodd" clip-rule="evenodd" d="M-4.44055e-05 161.054V39.8088C-4.44055e-05 34.9496 3.93914 31.0104 8.79836 31.0104C13.6576 31.0104 17.5968 34.9496 17.5968 39.8088V161.054H-4.44055e-05Z" fill="#E4E4E4"/>
<path fill-rule="evenodd" clip-rule="evenodd" d="M-4.44055e-05 164.444V67.4113H17.5968V164.444H-4.44055e-05Z" fill="#9BA6FA"/>
<path fill-rule="evenodd" clip-rule="evenodd" d="M-4.44055e-05 164.444V104.424H17.5968V164.444H-4.44055e-05Z" fill="#6979F8"/>
</svg>
