<svg width="30" height="30" viewBox="0 0 30 30" fill="none" xmlns="http://www.w3.org/2000/svg">
<path fill-rule="evenodd" clip-rule="evenodd" d="M2.75 3.75C2.75 3.19772 3.19772 2.75 3.75 2.75H12.5C13.0523 2.75 13.5 3.19772 13.5 3.75V12.5C13.5 13.0523 13.0523 13.5 12.5 13.5H3.75C3.19772 13.5 2.75 13.0523 2.75 12.5V3.75ZM4.75 4.75V11.5H11.5V4.75H4.75Z" fill="#BDBDBD"/>
<path fill-rule="evenodd" clip-rule="evenodd" d="M16.5 3.75C16.5 3.19772 16.9477 2.75 17.5 2.75H26.25C26.8023 2.75 27.25 3.19772 27.25 3.75V12.5C27.25 13.0523 26.8023 13.5 26.25 13.5H17.5C16.9477 13.5 16.5 13.0523 16.5 12.5V3.75ZM18.5 4.75V11.5H25.25V4.75H18.5Z" fill="#BDBDBD"/>
<path fill-rule="evenodd" clip-rule="evenodd" d="M16.5 17.5C16.5 16.9477 16.9477 16.5 17.5 16.5H26.25C26.8023 16.5 27.25 16.9477 27.25 17.5V26.25C27.25 26.8023 26.8023 27.25 26.25 27.25H17.5C16.9477 27.25 16.5 26.8023 16.5 26.25V17.5ZM18.5 18.5V25.25H25.25V18.5H18.5Z" fill="#BDBDBD"/>
<path fill-rule="evenodd" clip-rule="evenodd" d="M2.75 17.5C2.75 16.9477 3.19772 16.5 3.75 16.5H12.5C13.0523 16.5 13.5 16.9477 13.5 17.5V26.25C13.5 26.8023 13.0523 27.25 12.5 27.25H3.75C3.19772 27.25 2.75 26.8023 2.75 26.25V17.5ZM4.75 18.5V25.25H11.5V18.5H4.75Z" fill="#BDBDBD"/>
</svg>
